<?xml version="1.0" encoding="utf-8"?>
<!-- Generator: Adobe Illustrator 24.2.0, SVG Export Plug-In . SVG Version: 6.00 Build 0)  -->
<svg version="1.1" id="svg" xmlns="http://www.w3.org/2000/svg" xmlns:xlink="http://www.w3.org/1999/xlink" x="0px" y="0px"
	 viewBox="0 0 400 225" style="enable-background:new 0 0 400 225;" xml:space="preserve">
<style type="text/css">
	.st0{fill-rule:evenodd;clip-rule:evenodd;fill:#CCCCCC;}
	.st1{fill-rule:evenodd;clip-rule:evenodd;fill:#848484;}
	.st2{fill-rule:evenodd;clip-rule:evenodd;fill:#FCFCFC;}
	.st3{fill-rule:evenodd;clip-rule:evenodd;fill:#ACACAC;}
	.st4{fill-rule:evenodd;clip-rule:evenodd;fill:#949494;}
</style>
<g id="svgg">
	<path id="path0" class="st0" d="M0,112.5v112.5h200h200V112.5V0H200H0V112.5 M295.6,60.3c1.6,0.6,3.1,1.9,3.8,3.4l0.6,1.3v47.4
		c0,51.2,0.1,47.9-1.2,49.8c-0.3,0.5-1.1,1.2-1.8,1.7l-1.2,0.9l-95.5,0.1c-93.3,0.1-95.6,0-96.5-0.4c-1.3-0.6-2.6-1.8-3.3-3.1
		l-0.6-1.1v-47.7V64.7l0.5-1c0.8-1.7,2-2.8,3.6-3.4C105.5,59.7,293.9,59.7,295.6,60.3 M179.7,112.4c0,1.9,0,2.6,0.1,1.6
		c0-1,0-2.5,0-3.4C179.8,109.8,179.7,110.6,179.7,112.4 M186.2,112.4c0,1.9,0,2.6,0.1,1.6c0-1,0-2.5,0-3.4
		C186.3,109.8,186.2,110.6,186.2,112.4 M220.2,112.4c0,1.9,0,2.6,0.1,1.6c0-1,0-2.5,0-3.4C220.3,109.8,220.2,110.6,220.2,112.4"/>
	<path id="path1" class="st1" d="M105.2,60.3c-2.1,0.4-3.4,1.3-4.3,2.9l-0.6,1.1v48.2v48.2l0.6,0.9c0.7,1.2,1.4,1.8,2.7,2.4l1,0.5
		l94.7,0.1c66.6,0,95,0,95.8-0.2c1.3-0.3,3.2-1.6,3.7-2.6c0.2-0.4,0.4-0.7,0.6-0.8c0.1-0.1,0.2-16.5,0.2-48.4V64.3l-0.8-1.3
		c-0.7-1-1.1-1.4-2.4-2l-1.5-0.8l-94.3,0C148.6,60.2,105.7,60.2,105.2,60.3 M186.6,112.4l0.1,3.3h-3.5h-3.5v-3.4v-3.4l3.4,0.1
		l3.4,0.1L186.6,112.4 M203.9,112.4l0.1,3.3h-3.6h-3.6v-3.4v-3.4l3.5,0.1l3.5,0.1L203.9,112.4 M220.7,112.3v3.3l-3.5,0.1l-3.5,0.1
		v-3.4v-3.4l3.5,0.1l3.5,0.1V112.3"/>
	<path id="path2" class="st2" d="M179.9,112.4v3.3h3.2h3.2v-3.3v-3.3H183h-3.2V112.4 M197,112.4v3.3l3.2-0.1l3.2-0.1l0.1-3.2
		l0.1-3.2h-3.3H197V112.4 M213.8,112.4v3.3h3.2h3.2v-3.3v-3.3H217h-3.2V112.4"/>
	<path id="path3" class="st3" d="M104.7,60c-0.1,0.1,42.7,0.2,95.2,0.2c52.5,0,95.2-0.1,95-0.2C294.4,59.9,105.1,59.8,104.7,60
		 M103,60.8c-0.4,0.2-0.8,0.6-0.9,0.7c-0.1,0.2,0,0.1,0.3-0.1c0.2-0.2,0.7-0.5,1.1-0.7c0.4-0.2,0.6-0.4,0.5-0.4
		C103.8,60.3,103.3,60.5,103,60.8 M295.6,60.4c0.1,0.1,0.5,0.3,0.9,0.5c0.6,0.3,0.7,0.3,0.5,0.1c-0.2-0.2-0.6-0.4-0.9-0.5
		C295.7,60.3,295.5,60.3,295.6,60.4 M298,62c0.4,0.5,0.9,1.1,1.1,1.4c0.2,0.2,0.1,0.1,0-0.2c-0.2-0.4-0.7-1-1.1-1.3l-0.7-0.7L298,62
		 M100.2,64.1c-0.1,0.3-0.2,0.6-0.1,0.7c0.1,0.1,0.2-0.2,0.3-0.6C100.6,63.3,100.5,63.2,100.2,64.1 M299.6,64.9
		c0.2,1.2,0.2,93.8,0,95c-0.1,0.8-0.1,0.8,0.1,0.5c0.4-0.7,0.4-95.2,0-95.9C299.4,64.1,299.4,64.2,299.6,64.9 M99.8,112.4
		c0,26,0,36.6,0.1,23.6c0-13,0-34.3,0-47.3C99.9,75.8,99.8,86.4,99.8,112.4 M181.4,109.1c0.9,0,2.4,0,3.3,0c0.9,0,0.2-0.1-1.6-0.1
		S180.5,109.1,181.4,109.1 M196.8,109.2c-0.1,0.2-0.1,1.7,0,3.4l0.1,3.1l0.1-3.3l0-3.3h3.3h3.3l0.1,3.3l0.1,3.3l0-3.3l0-3.3
		l-3.3-0.1C197.7,108.9,196.9,109,196.8,109.2 M213.7,109.2c-0.1,0.2-0.1,1.7,0,3.4l0.1,3.1l0-3.3l0-3.3h3.3h3.3l0.1,3.3l0.1,3.3
		l0-3.3l0-3.3l-3.3-0.1C214.6,108.9,213.8,109,213.7,109.2 M100.1,160.5c0.2,0.8,0.5,1,0.4,0.3c-0.1-0.3-0.2-0.6-0.3-0.7
		C100,160,100,160.2,100.1,160.5 M298.9,161.7l-0.4,0.7l0.5-0.5c0.4-0.5,0.6-0.9,0.4-0.9C299.3,160.9,299.1,161.3,298.9,161.7
		 M100.8,162c0.2,0.5,1.2,1.4,1.9,1.8c0.2,0.1,0.1,0-0.2-0.3c-0.3-0.3-0.9-0.8-1.2-1.2C100.9,161.8,100.7,161.7,100.8,162
		 M295.9,164.2c-0.4,0.2-0.5,0.3-0.3,0.3c0.2,0,0.5-0.1,0.8-0.3C296.9,163.8,296.8,163.8,295.9,164.2 M103.9,164.4
		c0.4,0.2,0.8,0.3,1,0.3c0.2,0,0-0.1-0.5-0.3C103.4,164,103,164,103.9,164.4"/>
	<path id="path4" class="st4" d="M296.5,61c0.8,0.5,1.2,0.7,0.7,0.2c-0.3-0.3-0.7-0.5-0.8-0.5C296.2,60.8,296.3,60.9,296.5,61
		 M100.1,64.7c-0.2,0.5-0.2,95.3,0,95.4c0.1,0.1,0.2-21.5,0.2-47.8c0-26.4,0-47.9,0-47.9S100.2,64.5,100.1,64.7 M299.7,112.4
		c0,25.6,0,36.1,0.1,23.2c0-12.9,0-33.8,0-46.6C299.7,76.3,299.7,86.8,299.7,112.4 M186.4,112.4l0.1,3.4l0.1-3.2
		c0-1.8,0-3.3-0.1-3.4C186.3,109,186.3,110.5,186.4,112.4 M203.7,112.4l0.1,3.4l0.1-3.2c0-1.8,0-3.3-0.1-3.4
		C203.7,109,203.7,110.5,203.7,112.4 M220.6,112.3l0.1,3.3l0.1-3.1c0-1.7,0-3.2-0.1-3.3C220.6,109,220.5,110.5,220.6,112.3
		 M104.8,164.6c0.2,0.1,43,0.2,95,0.2c52.1,0,94.8-0.1,95-0.2c0.2-0.1-42.6-0.2-95-0.2C147.4,164.4,104.6,164.5,104.8,164.6"/>
</g>
</svg>
